<svg width="21" height="21" viewBox="0 0 21 21" fill="none" xmlns="http://www.w3.org/2000/svg">
<path d="M0.682039 0.701405C-0.054926 1.43837 -0.054926 2.63322 0.682041 3.37019L7.44764 10.1358L0.682037 16.9014C-0.0549286 17.6383 -0.0549267 18.8332 0.682038 19.5702C1.419 20.3071 2.61386 20.3071 3.35083 19.5702L10.1164 12.8046L16.882 19.5701C17.619 20.3071 18.8138 20.3071 19.5508 19.5701C20.2878 18.8332 20.2878 17.6383 19.5508 16.9013L12.7852 10.1358L19.5508 3.37022C20.2878 2.63325 20.2878 1.4384 19.5508 0.701432C18.8138 -0.0355316 17.619 -0.0355317 16.882 0.701433L10.1164 7.467L3.35083 0.701405C2.61386 -0.0355604 1.419 -0.0355605 0.682039 0.701405Z" fill="#754E29"/>
</svg>
